<?xml version="1.0" standalone="no"?><!DOCTYPE svg PUBLIC "-//W3C//DTD SVG 1.1//EN" "http://www.w3.org/Graphics/SVG/1.1/DTD/svg11.dtd"><svg t="1586238647001" class="icon" viewBox="0 0 1024 1024" version="1.1" xmlns="http://www.w3.org/2000/svg" p-id="2104" width="24" height="24" xmlns:xlink="http://www.w3.org/1999/xlink"><defs><style type="text/css"></style></defs><path d="M523.4 782.2c-106.8 0-190.5-22.3-263.5-70.2-64.7-42.4-112.3-99.3-162.7-159.4-4.9-5.9-9.9-11.8-14.9-17.8l-15.7-18.7 15.7-18.7c5-6 10-11.9 14.9-17.8 50.4-60.2 98-117 162.7-159.4 73-47.9 156.8-70.2 263.5-70.2 110 0 200.8 27.2 277.5 83.2 66 48.2 110.1 108.7 149.6 166.6l11.1 16.3-11.1 16.3C911 590.3 867 650.8 800.9 699c-76.7 56-167.5 83.2-277.5 83.2zM142.3 516.1c97.5 116.4 174.8 208.2 381.1 208.2 199.1 0 289.9-96.6 367.9-208.2C813.3 404.5 722.5 308 523.4 308c-206.3-0.1-283.7 91.7-381.1 208.1z" fill="#B8B8B8" p-id="2105"></path><path d="M515.5 635.1c-65.6 0-119-53.4-119-119s53.4-119 119-119 119 53.4 119 119-53.4 119-119 119z m0-180c-33.6 0-61 27.4-61 61s27.4 61 61 61 61-27.4 61-61c0-33.7-27.4-61-61-61z" fill="#B8B8B8" p-id="2106"></path></svg>