<?xml version="1.0" standalone="no"?><!DOCTYPE svg PUBLIC "-//W3C//DTD SVG 1.1//EN" "http://www.w3.org/Graphics/SVG/1.1/DTD/svg11.dtd"><svg t="1586238696453" class="icon" viewBox="0 0 1024 1024" version="1.1" xmlns="http://www.w3.org/2000/svg" p-id="3008" xmlns:xlink="http://www.w3.org/1999/xlink" width="24" height="24"><defs><style type="text/css"></style></defs><path d="M949.57 212.674l-41.8 41.517-139.205-138.348 41.801-41.459c15.34-15.283 39.523-16.084 53.893-1.768l87.024 86.454c14.427 14.313 13.628 38.324-1.712 53.604z m-369.197 366.92L441.17 441.244l306.239-304.299 139.205 138.349-306.24 304.3z m-19.388 19.275l-194.863 55.315 55.66-193.667L560.984 598.87zM236.552 178.12c-48.133 0-87.082 38.949-87.082 87.024v522.372c0 48.063 38.963 87.026 87.026 87.026h522.486c48.064 0 87.028-38.963 87.028-87.028V439.248l87.08-87.028V816.54c0 80.125-64.955 145.078-145.079 145.078H207.468c-80.125 0-145.078-64.954-145.078-145.078V236.115c0-80.125 64.954-145.079 145.078-145.079h464.436L584.82 178.12H236.55v-0.001z" p-id="3009" fill="#B8B8B8"></path></svg>