<svg  class="icon" viewBox="0 0 1024 1024" version="1.1" xmlns="http://www.w3.org/2000/svg" width="200" height="200">
    <path fill="#666666" d="M951.84384 772.835328 858.964992 635.465728c-3.65568-5.244928-11.283456-9.217024-20.578304-10.646528-9.218048-1.350656-19.068928 0-26.377216 3.8144L622.756864 725.722112c-8.582144 4.369408-12.314624 11.121664-9.852928 17.79712 2.622464 6.592512 11.123712 11.838464 21.92896 13.425664l49.975296 7.469056c-49.657856 58.3168-115.441664 93.751296-179.639296 93.751296-125.056 0-264.572928-137.21088-264.572928-333.852672 0-23.199744-31.14496-42.1888-69.599232-42.1888s-69.599232 18.989056-69.599232 42.1888c0 234.381312 177.334272 418.071552 403.770368 418.071552 127.916032 0 242.802688-57.759744 317.723648-157.154304l95.818752 14.45888c2.461696 0.319488 4.845568 0.477184 7.230464 0.477184 0.157696 0 0.157696 0 0.397312 0 16.446464 0 29.794304-8.024064 29.794304-17.954816C956.132352 778.714112 954.543104 775.616512 951.84384 772.835328L951.84384 772.835328zM185.933824 392.105984c-9.295872-1.429504-17.002496-5.243904-20.578304-10.645504L70.729728 241.70496c-4.289536-6.27712-2.224128-13.666304 5.08416-18.671616 7.310336-5.243904 18.910208-7.38816 29.715456-5.799936l95.8976 14.459904c74.923008-99.233792 189.80864-157.233152 317.725696-157.233152 226.435072 0 403.769344 183.770112 403.769344 418.151424 0 23.358464-31.143936 42.1888-69.600256 42.1888-38.453248 0-69.598208-18.830336-69.598208-42.1888 0-196.641792-139.437056-333.853696-264.57088-333.853696-64.196608 0-129.983488 35.434496-179.64032 93.75232l49.975296 7.469056c10.884096 1.826816 19.306496 6.832128 21.927936 13.426688 2.542592 6.674432-1.271808 13.66528-9.85088 18.034688l-189.33248 97.010688c-5.402624 2.78016-12.235776 4.13184-19.147776 4.13184C190.621696 392.583168 188.237824 392.423424 185.933824 392.105984z"></path></svg>