<?xml version="1.0" standalone="no"?><!DOCTYPE svg PUBLIC "-//W3C//DTD SVG 1.1//EN" "http://www.w3.org/Graphics/SVG/1.1/DTD/svg11.dtd"><svg t="1582115930733" class="icon" viewBox="0 0 1024 1024" version="1.1" xmlns="http://www.w3.org/2000/svg" p-id="2670" xmlns:xlink="http://www.w3.org/1999/xlink" width="200" height="200"><defs><style type="text/css"></style></defs><path d="M702.836364 32.581818c-18.618182-16.290909-46.545455-16.290909-65.163637 0l-146.618182 134.981818-146.618181-134.981818c-18.618182-16.290909-46.545455-16.290909-65.163637 0-18.618182 16.290909-18.618182 41.890909 0 58.181818l176.872728 162.909091c18.618182 16.290909 46.545455 16.290909 65.163636 0l176.872727-162.909091c20.945455-16.290909 20.945455-41.890909 4.654546-58.181818z m0 0" fill="#333333" p-id="2671"></path><path d="M972.8 183.854545H51.2C23.272727 183.854545 0 204.8 0 235.054545v716.8c0 27.927273 23.272727 51.2 51.2 51.2h921.6c13.963636 0 25.6-4.654545 37.236364-13.963636 9.309091-9.309091 13.963636-23.272727 13.963636-37.236364V235.054545c0-30.254545-23.272727-51.2-51.2-51.2z m-195.490909 686.545455c0 27.927273-23.272727 51.2-51.2 51.2H132.654545c-27.927273 0-51.2-23.272727-51.2-51.2V316.509091c0-27.927273 23.272727-51.2 51.2-51.2h591.127273c27.927273 0 51.2 23.272727 51.2 51.2v553.890909z m141.963636-363.054545c-11.636364 6.981818-27.927273 6.981818-41.890909 0-11.636364-6.981818-20.945455-20.945455-20.945454-34.909091s6.981818-27.927273 20.945454-34.909091c11.636364-6.981818 27.927273-6.981818 41.890909 0s20.945455 20.945455 20.945455 34.909091-6.981818 27.927273-20.945455 34.909091z m0-165.236364c-11.636364 6.981818-27.927273 6.981818-41.890909 0-11.636364-6.981818-20.945455-20.945455-20.945454-34.909091s6.981818-27.927273 20.945454-34.909091c11.636364-6.981818 27.927273-6.981818 41.890909 0 11.636364 6.981818 20.945455 20.945455 20.945455 34.909091s-6.981818 27.927273-20.945455 34.909091z" fill="#333333" p-id="2672"></path><path d="M553.890909 565.527273l-167.563636-107.054546c-25.6-16.290909-58.181818 2.327273-58.181818 34.909091v214.109091c0 32.581818 32.581818 51.2 58.181818 34.909091l167.563636-107.054545c25.6-16.290909 25.6-53.527273 0-69.818182z" fill="#333333" p-id="2673"></path></svg>