<?xml version="1.0" standalone="no"?><!DOCTYPE svg PUBLIC "-//W3C//DTD SVG 1.1//EN" "http://www.w3.org/Graphics/SVG/1.1/DTD/svg11.dtd"><svg t="1582115967372" class="icon" viewBox="0 0 1024 1024" version="1.1" xmlns="http://www.w3.org/2000/svg" p-id="3412" xmlns:xlink="http://www.w3.org/1999/xlink" width="200" height="200"><defs><style type="text/css"></style></defs><path d="M512 930.17c18.63 0 37.508-1.305 56.475-3.96 220.725-30.982 375.097-235.8 344.092-456.57-1.305-9.225-9.788-15.638-19.058-14.355-9.225 1.305-15.66 9.832-14.355 19.057 28.417 202.32-113.063 390.038-315.383 418.455-202.32 28.283-389.993-113.108-418.387-315.428-13.77-97.965 11.475-195.48 71.033-274.5 59.557-79.02 146.317-130.14 244.305-143.887 105.998-14.872 211.208 16.627 292.072 85.882l-91.215 12.803c-9.225 1.305-15.66 9.833-14.355 19.058 1.192 8.438 8.415 14.535 16.695 14.535 0.787 0 1.575-0.045 2.363-0.157l120.375-16.897c9.225-1.305 15.66-9.833 14.355-19.057-0.135-1.147-0.698-2.07-1.058-3.105l-16.627-118.462c-1.305-9.225-9.765-15.705-19.057-14.355-9.225 1.305-15.66 9.832-14.355 19.057l9.517 67.838c-85.95-66.6-194.355-95.873-303.39-80.55-106.92 14.985-201.6 70.762-266.58 156.983s-92.52 192.6-77.512 299.52c28.327 201.78 201.847 348.097 400.05 348.097zM750.343 459.267c-1.912-6.12-7.155-10.642-13.5-11.633l-146.408-22.972-64.08-133.627c-2.79-5.782-8.595-9.495-15.03-9.585-0.045 0-0.113 0-0.18 0-6.345 0-12.172 3.555-15.053 9.248l-67.118 132.21-146.97 19.665c-6.368 0.855-11.7 5.243-13.747 11.318-2.048 6.097-0.473 12.802 4.072 17.347l105.007 104.625-26.685 145.89c-1.148 6.323 1.372 12.735 6.547 16.583 5.153 3.803 12.015 4.41 17.753 1.462l131.962-67.522 130.41 70.425c2.52 1.372 5.265 2.025 8.01 2.025 0.158 0 0.293 0 0.45 0 9.315 0 16.875-7.56 16.875-16.875 0-2.273-0.45-4.433-1.26-6.412l-22.77-142.605 107.257-102.353c4.635-4.387 6.367-11.07 4.455-17.212zM608.907 560.585c-4.028 3.825-5.895 9.382-5.018 14.873l19.373 121.365-108.157-58.41c-2.498-1.35-5.265-2.025-8.01-2.025-2.632 0-5.265 0.608-7.695 1.868l-109.418 56.002 22.117-120.982c0.99-5.468-0.765-11.07-4.68-14.985l-87.053-86.737 121.883-16.312c5.512-0.743 10.305-4.14 12.802-9.09l55.665-109.642 53.122 110.812c2.407 5.018 7.11 8.505 12.6 9.383l121.41 19.057-88.943 84.825z" fill="#333333" ></path></svg>