<?xml version="1.0" standalone="no"?><!DOCTYPE svg PUBLIC "-//W3C//DTD SVG 1.1//EN" "http://www.w3.org/Graphics/SVG/1.1/DTD/svg11.dtd"><svg t="1582115892778" class="icon" viewBox="0 0 1024 1024" version="1.1" xmlns="http://www.w3.org/2000/svg" p-id="1903" xmlns:xlink="http://www.w3.org/1999/xlink" width="200" height="200"><defs><style type="text/css"></style></defs><path d="M556.65283203 132.92553711a63.39990234 63.39990234 0 0 0-85.19238281 0L126.97314453 460.03027344a31.77905273 31.77905273 0 0 0 42.55664063 47.20385742l5.4777832-5.20092774V843.43554688a63.55810547 63.55810547 0 0 0 63.55810547 63.63720703h184.95922851v-191.34667969a44.75170898 44.75170898 0 0 1 44.77148438-44.81103516h87.03149414a44.75170898 44.75170898 0 0 1 44.77148437 44.81103516v191.34667969h189.34936524a63.55810547 63.55810547 0 0 0 63.57788086-63.63720704V506.20581055c14.11962891 12.77490234 34.15209961 11.8059082 45.89868164-1.28540039a31.77905273 31.77905273 0 0 0-2.29394531-44.89013672L556.65283203 132.9453125z" fill="#333333" p-id="1904"></path></svg>