<?xml version="1.0" standalone="no"?><!DOCTYPE svg PUBLIC "-//W3C//DTD SVG 1.1//EN" "http://www.w3.org/Graphics/SVG/1.1/DTD/svg11.dtd"><svg t="1582115985294" class="icon" viewBox="0 0 1024 1024" version="1.1" xmlns="http://www.w3.org/2000/svg" p-id="4261" xmlns:xlink="http://www.w3.org/1999/xlink" width="200" height="200"><defs><style type="text/css"></style></defs><path d="M875.507 936.258H124.998c-19.417 0-38.836-9.709-51.458-24.272l-0.97-0.97c-12.622-17.478-16.506-37.867-11.652-56.313 39.808-201.949 206.804-355.352 405.838-371.857 4.855-0.97 8.738-1.941 12.622-1.941h36.895l-4.855 48.545H492c-7.767 0-11.651 0-17.476 1.94h-2.912c-179.62 12.624-330.108 150.493-365.062 333.993-0.97 4.855-0.97 11.652 3.883 16.506l0.97 1.941c2.915 3.884 7.77 5.827 13.594 5.827h751.48c5.825 0 10.68-1.942 13.592-5.827 4.855-5.825 5.825-11.65 4.855-18.447-22.33-120.392-95.15-222.336-198.064-280.59l-0.97-0.971c-7.768-4.856-17.477-9.71-26.215-14.564-2.913-1.942-5.826-2.912-8.738-4.854l-13.593-5.826 19.418-43.69 13.592 5.825c9.709 3.883 19.419 9.708 28.157 13.592l11.65 5.826C836.67 606.153 917.254 720.718 943.47 854.704c4.854 19.418 0 39.807-14.563 57.283-13.593 15.534-33.982 24.272-53.4 24.272z" p-id="4262"></path><path d="M505.593 514.886c-122.334 0-223.308-100.973-223.308-223.307S383.259 68.27 505.593 68.27 728.9 169.245 728.9 291.578 626.956 514.886 505.594 514.886z m0-411.663c-104.858 0-188.356 84.469-188.356 188.356s84.47 188.355 188.356 188.355 188.355-84.47 188.355-188.355-84.47-188.356-188.355-188.356z" p-id="4263"></path><path d="M505.593 519.74c-126.218 0-228.163-101.944-228.163-228.161S379.375 63.415 505.593 63.415 733.755 165.361 733.755 291.58 630.839 519.74 505.593 519.74z m0-446.615c-120.392 0-218.454 98.061-218.454 218.454s98.062 218.453 218.454 218.453 218.453-98.062 218.453-218.453-98.06-218.454-218.453-218.454z m0 411.663c-106.8 0-193.21-86.41-193.21-193.21s86.41-193.21 193.21-193.21c106.8 0 193.21 86.41 193.21 193.21s-87.382 193.21-193.21 193.21z m0-376.71c-100.974 0-183.501 82.527-183.501 183.5 0 100.975 82.527 183.501 183.5 183.501s183.501-82.528 183.501-183.5c0-100.974-82.527-183.501-183.5-183.501z m-298.068 667.01c-1.941 0-4.854-0.97-6.796-1.941-6.796-3.884-9.71-12.622-5.826-19.419 85.44-166.025 270.883-197.093 278.65-198.064 7.768-0.97 15.534 3.884 16.506 11.651 0.97 7.768-3.884 15.534-11.652 16.506-1.94 0-178.646 30.097-257.29 182.529-2.911 5.826-7.767 8.738-13.592 8.738z m-33.01 84.47c-7.767 0-14.564-6.797-14.564-14.565 0-28.156 18.447-58.254 21.36-61.167 3.883-6.796 13.592-8.738 20.39-4.853 6.795 3.882 8.737 13.591 4.853 20.388-4.854 6.796-16.505 29.128-16.505 45.632-0.97 7.768-6.797 14.564-15.535 14.564z" fill="#333333"></path></svg>